<svg width="356" height="97" viewBox="0 0 356 97" fill="none" xmlns="http://www.w3.org/2000/svg">
<path d="M356 0L327.226 59.2516C325.338 63.136 321.421 65.5849 317.109 65.5849H303.243C298.931 65.5849 295.014 63.136 293.126 59.2516L278.33 28.7954L263.534 59.2516C261.618 63.1079 257.673 65.5849 253.361 65.5849H239.495C235.183 65.5849 231.266 63.136 229.378 59.2516L200.575 0H228.532L246.4 36.7895L264.295 0H292.252L310.12 36.7895L328.015 0H356Z" fill="url(#paint0_linear_482_203)"/>
<path d="M142.548 28.4858L128.57 57.2812L114.732 28.7954L96.8368 65.5849H68.8801L51.0126 28.7954L33.1169 65.5849H5.16016L33.9342 6.33331C35.8224 2.44888 39.7679 0 44.0798 0H57.9454C62.2573 0 66.1746 2.44888 68.0628 6.33331L82.8584 36.7895L97.6541 6.33331C99.5423 2.44888 103.488 0 107.8 0H121.665C125.977 0 129.923 2.44888 131.783 6.33331L142.548 28.4858Z" fill="url(#paint1_linear_482_203)"/>
<path d="M195.503 6.33331L224.277 65.5849H196.32L178.452 28.7954L160.557 65.5849H132.6L161.374 6.33331C163.262 2.44888 167.18 0 171.491 0H185.357C189.697 0 193.614 2.44888 195.503 6.33331Z" fill="url(#paint2_linear_482_203)"/>
<path d="M208.833 58.1257V65.585H168.701L172.309 58.1257H208.833Z" fill="url(#paint3_linear_482_203)"/>
<path d="M11.6965 84.9867L15.4389 90H13.1087L9.86066 85.6222H7.3893V90H5.3416V80.1146H7.3893V84.563H9.71944L12.9675 80.1146H15.227L11.6965 84.9867ZM18.6152 81.1737V84.4218H23.7698V85.4809H18.6152V88.9408H25.182V90H16.5675V80.1146H25.182V81.1737H18.6152ZM28.6414 81.1737V84.4218H33.7959V85.4809H28.6414V88.9408H35.2081V90H26.5937V80.1146H35.2081V81.1737H28.6414ZM41.7037 80.1146C42.4098 80.1146 43.0406 80.1946 43.5961 80.3546C44.161 80.5053 44.6364 80.7312 45.0224 81.0325C45.4084 81.3243 45.705 81.6868 45.9121 82.1199C46.1192 82.5435 46.2228 83.0284 46.2228 83.5745C46.2228 84.1205 46.1192 84.6101 45.9121 85.0432C45.705 85.4668 45.4084 85.8293 45.0224 86.1306C44.6364 86.4224 44.161 86.6484 43.5961 86.8084C43.0406 86.959 42.4098 87.0344 41.7037 87.0344H38.6675V90H36.6198V80.1146H41.7037ZM38.6675 81.1737V85.9752H41.7037C42.4475 85.9752 43.0218 85.7822 43.4266 85.3962C43.8409 85.0008 44.048 84.3935 44.048 83.5745C44.048 82.7554 43.8409 82.1528 43.4266 81.7668C43.0218 81.3714 42.4475 81.1737 41.7037 81.1737H38.6675ZM49.8245 90H47.7768V80.1146H49.8245V90ZM61.9716 80.1146V90H59.2884L53.9927 81.9504H53.8514V90H51.8037V80.1146H54.4869L59.7827 88.1641H59.9239V80.1146H61.9716ZM69.0376 79.8321C69.8944 79.8321 70.704 79.978 71.4666 80.2699C72.2292 80.5618 72.8788 80.9572 73.4155 81.4562L72.7094 82.3035C72.1727 81.8045 71.6078 81.4467 71.0147 81.2302C70.431 81.0042 69.8191 80.8913 69.1789 80.8913C68.6987 80.8913 68.2562 80.976 67.8514 81.1455C67.4465 81.3055 67.0935 81.555 66.7922 81.8939C66.5004 82.2329 66.2697 82.6659 66.1002 83.1932C65.9402 83.711 65.8602 84.3323 65.8602 85.0573C65.8602 85.801 65.9449 86.4412 66.1144 86.9779C66.2838 87.5051 66.5192 87.9429 66.8205 88.2912C67.1217 88.6302 67.4842 88.8844 67.9079 89.0538C68.3409 89.2139 68.8117 89.2939 69.3201 89.2939C69.7437 89.2939 70.1062 89.2562 70.4075 89.1809C70.7182 89.1056 70.9771 89.0162 71.1842 88.9126C71.429 88.7996 71.6314 88.6678 71.7914 88.5172V85.834H69.9556V84.9161H73.8391V88.7996C73.4908 89.0821 73.086 89.3316 72.6246 89.5481C72.2292 89.7364 71.7397 89.9059 71.1559 90.0565C70.5816 90.2071 69.9226 90.2824 69.1789 90.2824C68.3315 90.2824 67.5689 90.1695 66.8911 89.9435C66.2132 89.7176 65.6342 89.3833 65.1541 88.9408C64.6739 88.4984 64.3067 87.9523 64.0525 87.3027C63.7983 86.6531 63.6712 85.9046 63.6712 85.0573C63.6712 84.21 63.7983 83.4615 64.0525 82.8119C64.3067 82.1623 64.6645 81.6162 65.1258 81.1737C65.5966 80.7312 66.1614 80.397 66.8205 80.171C67.4889 79.9451 68.228 79.8321 69.0376 79.8321ZM86.1242 89.2233C86.7644 89.2233 87.3764 89.115 87.9601 88.8985C88.5532 88.6725 89.1181 88.3101 89.6547 87.8111L90.3608 88.6584C89.8242 89.1574 89.1746 89.5528 88.412 89.8447C87.6494 90.1365 86.8397 90.2824 85.983 90.2824C85.098 90.2824 84.2978 90.1695 83.5823 89.9435C82.8762 89.7176 82.2689 89.3833 81.7605 88.9408C81.2615 88.4984 80.8755 87.9523 80.6025 87.3027C80.3295 86.6531 80.193 85.9046 80.193 85.0573C80.193 84.21 80.3248 83.4615 80.5884 82.8119C80.8614 82.1623 81.2427 81.6162 81.7323 81.1737C82.2312 80.7312 82.8291 80.397 83.5258 80.171C84.2225 79.9451 84.9945 79.8321 85.8418 79.8321C86.6985 79.8321 87.5082 79.978 88.2708 80.2699C89.0334 80.5618 89.683 80.9572 90.2196 81.4562L89.5135 82.3035C88.9769 81.8045 88.412 81.4467 87.8189 81.2302C87.2352 81.0042 86.6232 80.8913 85.983 80.8913C85.4746 80.8913 84.9992 80.976 84.5567 81.1455C84.1142 81.3055 83.7329 81.555 83.4128 81.8939C83.0927 82.2329 82.8385 82.6659 82.6502 83.1932C82.4713 83.711 82.3819 84.3323 82.3819 85.0573C82.3819 85.7822 82.4713 86.4083 82.6502 86.9355C82.8385 87.4533 83.0974 87.8817 83.4269 88.2206C83.7658 88.5595 84.1613 88.8137 84.6132 88.9832C85.0745 89.1433 85.5782 89.2233 86.1242 89.2233ZM96.5712 80.8207C96.0911 80.8207 95.6392 80.9054 95.2155 81.0749C94.8013 81.2443 94.4388 81.5032 94.1281 81.8516C93.8174 82.1999 93.568 82.6424 93.3797 83.179C93.2008 83.7063 93.1113 84.3323 93.1113 85.0573C93.1113 85.7822 93.2008 86.413 93.3797 86.9496C93.568 87.4769 93.8174 87.9146 94.1281 88.263C94.4388 88.6113 94.8013 88.8702 95.2155 89.0397C95.6392 89.2092 96.0911 89.2939 96.5712 89.2939C97.0514 89.2939 97.4986 89.2092 97.9128 89.0397C98.3365 88.8702 98.7037 88.6113 99.0144 88.263C99.325 87.9146 99.5698 87.4769 99.7487 86.9496C99.937 86.413 100.031 85.7822 100.031 85.0573C100.031 84.3323 99.937 83.7063 99.7487 83.179C99.5698 82.6424 99.325 82.1999 99.0144 81.8516C98.7037 81.5032 98.3365 81.2443 97.9128 81.0749C97.4986 80.9054 97.0514 80.8207 96.5712 80.8207ZM96.5712 79.8321C97.4186 79.8321 98.1859 79.9451 98.8731 80.171C99.5698 80.397 100.163 80.7312 100.653 81.1737C101.152 81.6162 101.538 82.1623 101.811 82.8119C102.084 83.4615 102.22 84.21 102.22 85.0573C102.22 85.9046 102.084 86.6531 101.811 87.3027C101.538 87.9523 101.152 88.4984 100.653 88.9408C100.163 89.3833 99.5698 89.7176 98.8731 89.9435C98.1859 90.1695 97.4186 90.2824 96.5712 90.2824C95.7239 90.2824 94.9519 90.1695 94.2552 89.9435C93.5585 89.7176 92.9607 89.3833 92.4617 88.9408C91.9722 88.4984 91.5909 87.9523 91.3178 87.3027C91.0542 86.6531 90.9224 85.9046 90.9224 85.0573C90.9224 84.21 91.0542 83.4615 91.3178 82.8119C91.5909 82.1623 91.9722 81.6162 92.4617 81.1737C92.9607 80.7312 93.5585 80.397 94.2552 80.171C94.9519 79.9451 95.7239 79.8321 96.5712 79.8321ZM110.628 88.5878H110.769L114.441 80.1146H117.477V90H115.43V82.0916H115.288L111.899 90H109.498L106.109 82.0916H105.968V90H103.92V80.1146H106.956L110.628 88.5878ZM126.157 88.5878H126.298L129.97 80.1146H133.006V90H130.958V82.0916H130.817L127.428 90H125.027L121.638 82.0916H121.497V90H119.449V80.1146H122.485L126.157 88.5878ZM137.025 90H134.978V80.1146H137.025V90ZM147.831 81.1737H144.018V90H141.97V81.1737H138.157V80.1146H147.831V81.1737ZM155.67 88.5878H155.811L159.483 80.1146H162.519V90H160.471V82.0916H160.33L156.941 90H154.54L151.151 82.0916H151.01V90H148.962V80.1146H151.998L155.67 88.5878ZM166.538 81.1737V84.4218H171.693V85.4809H166.538V88.9408H173.105V90H164.491V80.1146H173.105V81.1737H166.538ZM184.685 80.1146V90H182.001L176.706 81.9504H176.564V90H174.517V80.1146H177.2L182.496 88.1641H182.637V80.1146H184.685ZM195.493 81.1737H191.68V90H189.632V81.1737H185.819V80.1146H195.493V81.1737ZM205.376 87.3874C205.376 87.7923 205.291 88.1735 205.121 88.5313C204.952 88.8796 204.674 89.1856 204.288 89.4492C203.912 89.7034 203.417 89.9059 202.805 90.0565C202.203 90.2071 201.459 90.2824 200.574 90.2824C200.075 90.2824 199.586 90.2448 199.105 90.1695C198.635 90.0941 198.183 89.9859 197.75 89.8447C197.326 89.7034 196.931 89.534 196.564 89.3363C196.206 89.1291 195.895 88.9032 195.631 88.6584L196.338 87.8111C196.874 88.2724 197.5 88.6255 198.216 88.8702C198.931 89.1056 199.717 89.2233 200.574 89.2233C201.525 89.2233 202.198 89.0915 202.594 88.8279C202.989 88.5643 203.187 88.2018 203.187 87.7405C203.187 87.3827 203.031 87.0814 202.721 86.8367C202.41 86.5919 201.883 86.3518 201.139 86.1164L198.456 85.2691C197.571 84.9867 196.902 84.6289 196.451 84.1958C195.999 83.7533 195.773 83.1932 195.773 82.5153C195.773 82.167 195.853 81.8327 196.013 81.5126C196.182 81.1831 196.441 80.896 196.789 80.6512C197.138 80.397 197.58 80.1993 198.117 80.0581C198.663 79.9074 199.317 79.8321 200.08 79.8321C200.541 79.8321 200.998 79.8698 201.45 79.9451C201.911 80.0204 202.349 80.1287 202.763 80.2699C203.187 80.4111 203.577 80.5853 203.935 80.7924C204.302 80.9901 204.618 81.2114 204.881 81.4562L204.175 82.3035C203.639 81.8422 203.036 81.4938 202.368 81.2584C201.699 81.0137 200.937 80.8913 200.08 80.8913C199.374 80.8913 198.842 81.0137 198.484 81.2584C198.136 81.5032 197.962 81.8045 197.962 82.1623C197.962 82.36 197.995 82.5341 198.06 82.6848C198.126 82.826 198.235 82.9625 198.385 83.0943C198.545 83.2167 198.752 83.3344 199.007 83.4474C199.261 83.5509 199.576 83.6639 199.953 83.7863L202.622 84.6336C203.479 84.9066 204.152 85.2644 204.641 85.7069C205.131 86.1494 205.376 86.7096 205.376 87.3874ZM208.694 89.3645C208.694 89.7317 208.638 90.0471 208.525 90.3107C208.412 90.5837 208.266 90.805 208.087 90.9744C207.908 91.1533 207.701 91.2804 207.466 91.3557C207.24 91.4405 207.014 91.4828 206.788 91.4828V90.9885C207.033 90.9885 207.259 90.9038 207.466 90.7343C207.682 90.5743 207.809 90.3531 207.847 90.0706C207.819 90.0894 207.786 90.1036 207.748 90.113C207.673 90.1318 207.588 90.1412 207.494 90.1412C207.212 90.1412 206.976 90.0377 206.788 89.8305C206.6 89.614 206.505 89.3645 206.505 89.0821C206.505 88.7996 206.6 88.5548 206.788 88.3477C206.986 88.1312 207.245 88.0229 207.565 88.0229C207.922 88.0229 208.2 88.1594 208.398 88.4325C208.596 88.6961 208.694 89.0067 208.694 89.3645ZM215.325 80.1146H220.126C220.851 80.1146 221.477 80.1805 222.004 80.3123C222.541 80.4347 222.983 80.6135 223.332 80.8489C223.68 81.0749 223.939 81.3479 224.108 81.668C224.278 81.9881 224.363 82.3411 224.363 82.7271C224.363 83.2261 224.221 83.6592 223.939 84.0264C223.657 84.3935 223.233 84.6666 222.668 84.8454C223.374 84.9867 223.925 85.2644 224.32 85.6786C224.725 86.0835 224.928 86.606 224.928 87.2462C224.928 88.0935 224.575 88.7667 223.868 89.2657C223.172 89.7552 222.066 90 220.55 90H215.325V80.1146ZM217.372 85.4809V88.9408H220.55C221.256 88.9408 221.797 88.7996 222.174 88.5172C222.55 88.2347 222.739 87.8111 222.739 87.2462C222.739 86.6437 222.55 86.2012 222.174 85.9187C221.797 85.6269 221.256 85.4809 220.55 85.4809H217.372ZM220.126 84.4218C221.491 84.4218 222.174 83.8569 222.174 82.7271C222.174 82.2282 222 81.8469 221.651 81.5832C221.312 81.3102 220.804 81.1737 220.126 81.1737H217.372V84.4218H220.126ZM231.703 89.2939C232.165 89.2939 232.579 89.2327 232.946 89.1103C233.323 88.9785 233.643 88.7808 233.906 88.5172C234.17 88.2442 234.372 87.9005 234.514 87.4863C234.664 87.0626 234.74 86.5589 234.74 85.9752V80.1146H236.787V85.9752C236.787 87.4251 236.345 88.5078 235.46 89.2233C234.575 89.9294 233.323 90.2824 231.703 90.2824C230.075 90.2824 228.818 89.9294 227.933 89.2233C227.057 88.5078 226.619 87.4251 226.619 85.9752V80.1146H228.667V85.9752C228.667 86.5589 228.738 87.0626 228.879 87.4863C229.03 87.9005 229.237 88.2442 229.5 88.5172C229.764 88.7808 230.079 88.9785 230.447 89.1103C230.823 89.2327 231.242 89.2939 231.703 89.2939ZM240.817 90H238.769V80.1146H240.817V90ZM250.917 88.9408V90H242.796V80.1146H244.844V88.9408H250.917ZM256.848 80.1146C257.696 80.1146 258.463 80.2228 259.15 80.4394C259.847 80.6465 260.44 80.9572 260.93 81.3714C261.429 81.7857 261.815 82.3035 262.088 82.9248C262.361 83.5368 262.497 84.2476 262.497 85.0573C262.497 85.8669 262.361 86.5825 262.088 87.2038C261.815 87.8158 261.429 88.3289 260.93 88.7431C260.44 89.1574 259.847 89.4728 259.15 89.6893C258.463 89.8964 257.696 90 256.848 90H252.188V80.1146H256.848ZM254.236 81.1737V88.9408H256.848C257.329 88.9408 257.776 88.8702 258.19 88.729C258.614 88.5784 258.981 88.3477 259.292 88.037C259.602 87.7169 259.847 87.3121 260.026 86.8225C260.214 86.333 260.308 85.7446 260.308 85.0573C260.308 84.37 260.214 83.7816 260.026 83.292C259.847 82.8025 259.602 82.4023 259.292 82.0916C258.981 81.7715 258.614 81.5409 258.19 81.3997C257.776 81.249 257.329 81.1737 256.848 81.1737H254.236ZM266.096 90H264.048V80.1146H266.096V90ZM278.243 80.1146V90H275.56L270.264 81.9504H270.123V90H268.075V80.1146H270.759L276.054 88.1641H276.196V80.1146H278.243ZM285.309 79.8321C286.166 79.8321 286.976 79.978 287.738 80.2699C288.501 80.5618 289.151 80.9572 289.687 81.4562L288.981 82.3035C288.444 81.8045 287.88 81.4467 287.286 81.2302C286.703 81.0042 286.091 80.8913 285.451 80.8913C284.97 80.8913 284.528 80.976 284.123 81.1455C283.718 81.3055 283.365 81.555 283.064 81.8939C282.772 82.2329 282.541 82.6659 282.372 83.1932C282.212 83.711 282.132 84.3323 282.132 85.0573C282.132 85.801 282.217 86.4412 282.386 86.9779C282.556 87.5051 282.791 87.9429 283.092 88.2912C283.393 88.6302 283.756 88.8844 284.18 89.0538C284.613 89.2139 285.083 89.2939 285.592 89.2939C286.015 89.2939 286.378 89.2562 286.679 89.1809C286.99 89.1056 287.249 89.0162 287.456 88.9126C287.701 88.7996 287.903 88.6678 288.063 88.5172V85.834H286.227V84.9161H290.111V88.7996C289.762 89.0821 289.358 89.3316 288.896 89.5481C288.501 89.7364 288.011 89.9059 287.428 90.0565C286.853 90.2071 286.194 90.2824 285.451 90.2824C284.603 90.2824 283.841 90.1695 283.163 89.9435C282.485 89.7176 281.906 89.3833 281.426 88.9408C280.946 88.4984 280.578 87.9523 280.324 87.3027C280.07 86.6531 279.943 85.9046 279.943 85.0573C279.943 84.21 280.07 83.4615 280.324 82.8119C280.578 82.1623 280.936 81.6162 281.398 81.1737C281.868 80.7312 282.433 80.397 283.092 80.171C283.761 79.9451 284.5 79.8321 285.309 79.8321ZM305.573 81.1737H301.76V90H299.713V81.1737H295.9V80.1146H305.573V81.1737ZM311.788 80.1146C312.494 80.1146 313.125 80.1946 313.681 80.3546C314.245 80.5053 314.721 80.7312 315.107 81.0325C315.493 81.3243 315.789 81.6868 315.997 82.1199C316.204 82.5435 316.307 83.0284 316.307 83.5745C316.307 84.3276 316.119 84.9631 315.742 85.4809C315.366 85.9987 314.824 86.3942 314.118 86.6672L316.448 90H314.118L312.042 87.0344H311.788H308.752V90H306.704V80.1146H311.788ZM308.752 81.1737V85.9752H311.788C312.532 85.9752 313.106 85.7822 313.511 85.3962C313.916 85.0008 314.118 84.3935 314.118 83.5745C314.118 82.7554 313.916 82.1528 313.511 81.7668C313.106 81.3714 312.532 81.1737 311.788 81.1737H308.752ZM323.083 89.2939C323.544 89.2939 323.959 89.2327 324.326 89.1103C324.702 88.9785 325.023 88.7808 325.286 88.5172C325.55 88.2442 325.752 87.9005 325.893 87.4863C326.044 87.0626 326.119 86.5589 326.119 85.9752V80.1146H328.167V85.9752C328.167 87.4251 327.725 88.5078 326.84 89.2233C325.955 89.9294 324.702 90.2824 323.083 90.2824C321.454 90.2824 320.197 89.9294 319.312 89.2233C318.437 88.5078 317.999 87.4251 317.999 85.9752V80.1146H320.047V85.9752C320.047 86.5589 320.117 87.0626 320.259 87.4863C320.409 87.9005 320.616 88.2442 320.88 88.5172C321.144 88.7808 321.459 88.9785 321.826 89.1103C322.203 89.2327 322.622 89.2939 323.083 89.2939ZM339.328 87.3874C339.328 87.7923 339.244 88.1735 339.074 88.5313C338.905 88.8796 338.627 89.1856 338.241 89.4492C337.864 89.7034 337.37 89.9059 336.758 90.0565C336.156 90.2071 335.412 90.2824 334.527 90.2824C334.028 90.2824 333.538 90.2448 333.058 90.1695C332.588 90.0941 332.136 89.9859 331.703 89.8447C331.279 89.7034 330.883 89.534 330.516 89.3363C330.159 89.1291 329.848 88.9032 329.584 88.6584L330.29 87.8111C330.827 88.2724 331.453 88.6255 332.169 88.8702C332.884 89.1056 333.67 89.2233 334.527 89.2233C335.478 89.2233 336.151 89.0915 336.546 88.8279C336.942 88.5643 337.14 88.2018 337.14 87.7405C337.14 87.3827 336.984 87.0814 336.673 86.8367C336.363 86.5919 335.836 86.3518 335.092 86.1164L332.409 85.2691C331.524 84.9867 330.855 84.6289 330.403 84.1958C329.951 83.7533 329.725 83.1932 329.725 82.5153C329.725 82.167 329.805 81.8327 329.966 81.5126C330.135 81.1831 330.394 80.896 330.742 80.6512C331.091 80.397 331.533 80.1993 332.07 80.0581C332.616 79.9074 333.27 79.8321 334.033 79.8321C334.494 79.8321 334.951 79.8698 335.403 79.9451C335.864 80.0204 336.302 80.1287 336.716 80.2699C337.14 80.4111 337.53 80.5853 337.888 80.7924C338.255 80.9901 338.571 81.2114 338.834 81.4562L338.128 82.3035C337.591 81.8422 336.989 81.4938 336.32 81.2584C335.652 81.0137 334.889 80.8913 334.033 80.8913C333.327 80.8913 332.795 81.0137 332.437 81.2584C332.089 81.5032 331.914 81.8045 331.914 82.1623C331.914 82.36 331.947 82.5341 332.013 82.6848C332.079 82.826 332.187 82.9625 332.338 83.0943C332.498 83.2167 332.705 83.3344 332.959 83.4474C333.214 83.5509 333.529 83.6639 333.906 83.7863L336.575 84.6336C337.431 84.9066 338.105 85.2644 338.594 85.7069C339.084 86.1494 339.328 86.7096 339.328 87.3874ZM349.139 81.1737H345.326V90H343.279V81.1737H339.466V80.1146H349.139V81.1737Z" fill="white"/>
<defs>
<linearGradient id="paint0_linear_482_203" x1="5.16016" y1="32.7925" x2="356" y2="32.7925" gradientUnits="userSpaceOnUse">
<stop stop-color="#005FFB"/>
<stop offset="1" stop-color="#FA0060"/>
</linearGradient>
<linearGradient id="paint1_linear_482_203" x1="5.16016" y1="32.7925" x2="356" y2="32.7925" gradientUnits="userSpaceOnUse">
<stop stop-color="#005FFB"/>
<stop offset="1" stop-color="#FA0060"/>
</linearGradient>
<linearGradient id="paint2_linear_482_203" x1="5.16016" y1="32.7925" x2="356" y2="32.7925" gradientUnits="userSpaceOnUse">
<stop stop-color="#005FFB"/>
<stop offset="1" stop-color="#FA0060"/>
</linearGradient>
<linearGradient id="paint3_linear_482_203" x1="5.16016" y1="32.7925" x2="356" y2="32.7925" gradientUnits="userSpaceOnUse">
<stop stop-color="#005FFB"/>
<stop offset="1" stop-color="#FA0060"/>
</linearGradient>
</defs>
</svg>
